<svg width="16" height="16" viewBox="0 0 16 16" fill="none" xmlns="http://www.w3.org/2000/svg">
<g id="calendar-icon">
<g id="Group">
<path id="Vector" d="M5.14763 6.76636H3.59121C3.45903 6.76636 3.35205 6.87334 3.35205 7.00551V8.56194C3.35205 8.69395 3.45903 8.80109 3.59121 8.80109H5.14763C5.2798 8.80109 5.38679 8.69395 5.38679 8.56194V7.00551C5.38679 6.8735 5.2798 6.76636 5.14763 6.76636ZM4.90847 8.32278H3.83036V7.24467H4.90847V8.32278Z" fill="#12263A"/>
<path id="Vector_2" d="M8.77801 6.76636H7.22158C7.0894 6.76636 6.98242 6.87334 6.98242 7.00551V8.56194C6.98242 8.69395 7.0894 8.80109 7.22158 8.80109H8.77801C8.91002 8.80109 9.01716 8.69395 9.01716 8.56194V7.00551C9.01716 6.8735 8.91002 6.76636 8.77801 6.76636ZM8.53885 8.32278H7.46073V7.24467H8.53885V8.32278Z" fill="#12263A"/>
<path id="Vector_3" d="M12.2961 6.76636H10.7396C10.6076 6.76636 10.5005 6.87334 10.5005 7.00551V8.56194C10.5005 8.69395 10.6076 8.80109 10.7396 8.80109H12.2961C12.4281 8.80109 12.5352 8.69395 12.5352 8.56194V7.00551C12.5352 6.8735 12.4281 6.76636 12.2961 6.76636ZM12.0569 8.32278H10.9788V7.24467H12.0569V8.32278Z" fill="#12263A"/>
<path id="Vector_4" d="M5.14763 10.3115H3.59121C3.45903 10.3115 3.35205 10.4187 3.35205 10.5507V12.1071C3.35205 12.2391 3.45903 12.3463 3.59121 12.3463H5.14763C5.2798 12.3463 5.38679 12.2391 5.38679 12.1071V10.5507C5.38679 10.4187 5.2798 10.3115 5.14763 10.3115ZM4.90847 11.8679H3.83036V10.7898H4.90847V11.8679Z" fill="#12263A"/>
<path id="Vector_5" d="M8.77801 10.3115H7.22158C7.0894 10.3115 6.98242 10.4187 6.98242 10.5507V12.1071C6.98242 12.2391 7.0894 12.3463 7.22158 12.3463H8.77801C8.91002 12.3463 9.01716 12.2391 9.01716 12.1071V10.5507C9.01716 10.4187 8.91002 10.3115 8.77801 10.3115ZM8.53885 11.8679H7.46073V10.7898H8.53885V11.8679Z" fill="#12263A"/>
<path id="Vector_6" d="M12.2961 10.3115H10.7396C10.6076 10.3115 10.5005 10.4187 10.5005 10.5507V12.1071C10.5005 12.2391 10.6076 12.3463 10.7396 12.3463H12.2961C12.4281 12.3463 12.5352 12.2391 12.5352 12.1071V10.5507C12.5352 10.4187 12.4281 10.3115 12.2961 10.3115ZM12.0569 11.8679H10.9788V10.7898H12.0569V11.8679Z" fill="#12263A"/>
<path id="Vector_7" d="M14.1901 2.1353H12.6106C12.6085 2.1353 12.6067 2.13578 12.6047 2.13594V1.81738C12.6047 1.29634 12.1809 0.872559 11.6598 0.872559C11.1388 0.872559 10.715 1.2965 10.715 1.81738V2.1353H8.9352V1.81738C8.9352 1.29634 8.51142 0.872559 7.99038 0.872559C7.46934 0.872559 7.04555 1.2965 7.04555 1.81738V2.1353H5.2656V1.81738C5.2656 1.29634 4.84181 0.872559 4.32077 0.872559C3.79973 0.872559 3.37595 1.2965 3.37595 1.81738V2.13546C3.37515 2.13546 3.37435 2.1353 3.37356 2.1353H1.79433C1.66216 2.1353 1.55518 2.24228 1.55518 2.37446V14.7701C1.55518 14.9021 1.66216 15.0092 1.79433 15.0092H14.1901C14.3221 15.0092 14.4293 14.9021 14.4293 14.7701V2.37446C14.4293 2.24228 14.3221 2.1353 14.1901 2.1353ZM11.1933 1.81738C11.1933 1.56005 11.4025 1.35087 11.6598 1.35087C11.9172 1.35087 12.1263 1.56005 12.1263 1.81738V3.13705C12.1263 3.39422 11.9172 3.60356 11.6598 3.60356C11.4025 3.60356 11.1933 3.39438 11.1933 3.13705V1.81738ZM7.99038 1.35087C8.24755 1.35087 8.45689 1.56005 8.45689 1.81738V3.13705C8.45689 3.39422 8.24771 3.60356 7.99038 3.60356C7.73305 3.60356 7.52387 3.39438 7.52387 3.13705V2.39678C7.5245 2.38928 7.5261 2.38211 7.5261 2.3743C7.5261 2.36648 7.5245 2.35931 7.52387 2.35182V1.81738C7.52387 1.56005 7.73305 1.35087 7.99038 1.35087ZM3.85426 1.81738C3.85426 1.56005 4.06344 1.35087 4.32077 1.35087C4.57795 1.35087 4.78729 1.56005 4.78729 1.81738V3.13705C4.78729 3.39422 4.5781 3.60356 4.32077 3.60356C4.06344 3.60356 3.85426 3.39438 3.85426 3.13705V1.81738ZM13.9509 14.5309H2.03349V2.61361H3.37356C3.37435 2.61361 3.37515 2.61345 3.37595 2.61345V3.1372C3.37595 3.65825 3.79989 4.08203 4.32077 4.08203C4.84165 4.08203 5.2656 3.65825 5.2656 3.1372V2.61377H7.04555V3.1372C7.04555 3.65825 7.4695 4.08203 7.99038 4.08203C8.51126 4.08203 8.9352 3.65825 8.9352 3.1372V2.61377H10.715V3.1372C10.715 3.65825 11.1388 4.08203 11.6598 4.08203C12.1809 4.08203 12.6047 3.65825 12.6047 3.1372V2.61297C12.6067 2.61297 12.6085 2.61361 12.6106 2.61361H13.9509V14.5309Z" fill="#12263A"/>
</g>
</g>
</svg>
