<svg width="79" height="30" viewBox="0 0 79 30" fill="none" xmlns="http://www.w3.org/2000/svg">
<g id="mobile-logo" clip-path="url(#clip0)">
<path id="logo-text" d="M33.8346 12.8569H31.7072V12.5963C31.8131 12.5461 31.919 12.5026 32.0249 12.466C32.1308 12.4295 32.2367 12.4066 32.3426 12.3975V10.7792C32.2137 10.8569 32.041 10.9278 31.8246 10.9918C31.6082 11.0557 31.371 11.0878 31.1132 11.0878C30.929 11.0878 30.754 11.0695 30.5882 11.0329C30.427 10.9918 30.2843 10.9232 30.16 10.8272C30.0402 10.7312 29.9435 10.6009 29.8699 10.4363C29.8008 10.2672 29.7663 10.0546 29.7663 9.79861V8.51632C29.6788 8.50261 29.5913 8.47745 29.5038 8.44089C29.4163 8.40434 29.338 8.3632 29.269 8.31747V8.05689H31.2237V8.31747C31.173 8.35402 31.1108 8.39062 31.0372 8.42718C30.9681 8.46374 30.8898 8.49348 30.8024 8.51632V9.55861C30.8024 9.7186 30.8116 9.8626 30.83 9.99061C30.8484 10.1186 30.8852 10.2283 30.9405 10.3198C30.9958 10.4112 31.0694 10.4821 31.1615 10.5323C31.2582 10.5826 31.3826 10.6078 31.5345 10.6078C31.6865 10.6078 31.8292 10.5872 31.9627 10.546C32.1009 10.5003 32.2275 10.4409 32.3426 10.3678V8.51632C32.2643 8.49348 32.1884 8.46605 32.1147 8.43404C32.041 8.39748 31.9742 8.35861 31.9144 8.31747V8.05689H33.8346V8.31747C33.7747 8.35861 33.7056 8.39748 33.6274 8.43404C33.5491 8.46605 33.4662 8.49348 33.3787 8.51632V12.3975C33.4708 12.4158 33.556 12.4455 33.6343 12.4866C33.7125 12.5232 33.7793 12.5598 33.8346 12.5963V12.8569ZM36.1867 12.8569H34.1077V12.5963C34.1952 12.5506 34.2873 12.5095 34.384 12.4729C34.4807 12.4363 34.5774 12.4112 34.6741 12.3975V8.51632C34.582 8.49348 34.4853 8.46832 34.384 8.44089C34.2827 8.40888 34.1906 8.36774 34.1077 8.31747V8.05689H36.1867V8.31747C36.1177 8.35861 36.0394 8.39748 35.9519 8.43404C35.8644 8.4706 35.77 8.49802 35.6687 8.51632V11.122L35.5996 11.6569L35.9381 11.0946L37.6787 8.6809V8.51632C37.4623 8.46605 37.2804 8.39975 37.133 8.31747V8.05689H39.2121V8.31747C39.1338 8.36774 39.044 8.40888 38.9427 8.44089C38.846 8.46832 38.747 8.49348 38.6457 8.51632V12.3975C38.7516 12.4158 38.8506 12.4432 38.9427 12.4798C39.0394 12.5118 39.1292 12.5506 39.2121 12.5963V12.8569H37.133V12.5963C37.1975 12.5643 37.2735 12.53 37.361 12.4935C37.453 12.4523 37.5497 12.4203 37.6511 12.3975V9.79861L37.7201 9.2569L37.4093 9.79861L35.6411 12.2466V12.3975C35.747 12.4203 35.846 12.4501 35.9381 12.4866C36.0302 12.5232 36.1131 12.5598 36.1867 12.5963V12.8569ZM43.0821 11.4169H43.3652C43.3837 11.4901 43.3997 11.5792 43.4135 11.6843C43.4321 11.7849 43.4459 11.8946 43.455 12.0135C43.4688 12.1278 43.4783 12.242 43.4826 12.3563C43.4873 12.4706 43.4895 12.5735 43.4895 12.6649C43.3285 12.7655 43.1258 12.8363 42.8818 12.8775C42.6423 12.9186 42.396 12.9392 42.1427 12.9392C41.7605 12.9392 41.4129 12.8935 41.0998 12.802C40.7912 12.706 40.5265 12.5575 40.3055 12.3563C40.089 12.1506 39.9209 11.8923 39.8012 11.5815C39.6815 11.266 39.6216 10.8889 39.6216 10.45C39.6216 10.0158 39.6861 9.64317 39.815 9.33232C39.9486 9.01689 40.1259 8.7586 40.3469 8.55747C40.5679 8.35634 40.8235 8.21002 41.1136 8.11861C41.4083 8.02261 41.7168 7.97461 42.0391 7.97461C42.343 7.97461 42.617 7.99745 42.8611 8.04318C43.1097 8.08432 43.3125 8.14145 43.4688 8.21461C43.4688 8.28777 43.4645 8.38145 43.455 8.49575C43.4506 8.61005 43.439 8.73117 43.4204 8.85918C43.4066 8.98261 43.3885 9.10604 43.3652 9.22947C43.347 9.34831 43.3285 9.4489 43.3099 9.53118H43.0199L42.6401 8.49575C42.5986 8.47291 42.5318 8.45461 42.4397 8.44089C42.3476 8.42718 42.2533 8.42032 42.1566 8.42032C41.9677 8.42032 41.7905 8.4592 41.6247 8.5369C41.4589 8.61005 41.3116 8.7289 41.1827 8.89347C41.0537 9.05804 40.9524 9.27061 40.8787 9.53118C40.8051 9.78717 40.7682 10.0957 40.7682 10.4569C40.7682 11.1106 40.8995 11.6135 41.1619 11.9655C41.4244 12.3175 41.7812 12.4935 42.2325 12.4935C42.3614 12.4935 42.4697 12.4843 42.5572 12.466C42.6492 12.4432 42.7114 12.4135 42.7437 12.3769L43.0821 11.4169ZM47.1572 12.8569H44.7811V12.5963C44.8735 12.5598 44.9771 12.5232 45.0919 12.4866C45.212 12.4455 45.3315 12.4158 45.4511 12.3975V8.50261H44.6499L44.2078 9.67518H43.9246C43.9065 9.58377 43.888 9.4672 43.8694 9.32547C43.8513 9.18374 43.8349 9.03747 43.821 8.88661C43.8072 8.73575 43.796 8.58717 43.7865 8.44089C43.7774 8.29004 43.7727 8.16202 43.7727 8.05689H48.1725C48.1725 8.16661 48.1682 8.29462 48.1587 8.44089C48.1496 8.58717 48.138 8.73575 48.1242 8.88661C48.1104 9.03747 48.0944 9.18374 48.0758 9.32547C48.0577 9.46261 48.0391 9.57918 48.0206 9.67518H47.7305L47.2884 8.50261H46.4872V12.3975C46.6072 12.4203 46.7246 12.4477 46.8394 12.4798C46.9595 12.5118 47.0652 12.5506 47.1572 12.5963V12.8569ZM48.4108 10.4569C48.4108 10.1003 48.4613 9.77118 48.5628 9.46947C48.6638 9.16317 48.8136 8.90032 49.0117 8.6809C49.2094 8.45688 49.4538 8.28318 49.7439 8.15975C50.034 8.03632 50.3677 7.97461 50.7454 7.97461C51.1227 7.97461 51.4568 8.03632 51.7469 8.15975C52.037 8.28318 52.2788 8.45688 52.4722 8.6809C52.6699 8.90032 52.8197 9.16317 52.9212 9.46947C53.0222 9.77118 53.0731 10.1003 53.0731 10.4569C53.0731 10.8135 53.0222 11.1449 52.9212 11.4512C52.8197 11.7529 52.6699 12.0157 52.4722 12.2398C52.2788 12.4592 52.037 12.6306 51.7469 12.754C51.4568 12.8775 51.1227 12.9392 50.7454 12.9392C50.3677 12.9392 50.034 12.8775 49.7439 12.754C49.4538 12.6306 49.2094 12.4592 49.0117 12.2398C48.8136 12.0157 48.6638 11.7529 48.5628 11.4512C48.4613 11.1449 48.4108 10.8135 48.4108 10.4569ZM49.585 10.4569C49.585 10.7495 49.6079 11.0215 49.6541 11.2729C49.6998 11.5198 49.7715 11.7346 49.8682 11.9175C49.9692 12.0958 50.0961 12.2375 50.2481 12.3426C50.4044 12.4432 50.5909 12.4935 50.8076 12.4935C51.0053 12.4935 51.1737 12.4432 51.3118 12.3426C51.4499 12.2375 51.5626 12.0958 51.6502 11.9175C51.7374 11.7346 51.7996 11.5198 51.8367 11.2729C51.8782 11.0215 51.8989 10.7495 51.8989 10.4569C51.8989 10.1643 51.8756 9.89461 51.8298 9.64775C51.7884 9.39631 51.7193 9.18147 51.6226 9.00318C51.5302 8.82031 51.4059 8.67862 51.2496 8.57804C51.0977 8.47291 50.9112 8.42032 50.6902 8.42032C50.4782 8.42032 50.3008 8.47291 50.1583 8.57804C50.0154 8.67862 49.9002 8.82031 49.813 9.00318C49.7301 9.18147 49.6701 9.39631 49.6334 9.64775C49.601 9.89461 49.585 10.1643 49.585 10.4569ZM53.4867 12.8569V12.5963C53.5743 12.5461 53.6663 12.5026 53.763 12.466C53.8644 12.4295 53.9611 12.4066 54.0531 12.3975V8.51632C53.9611 8.49802 53.8644 8.47291 53.763 8.44089C53.6615 8.40434 53.5696 8.3632 53.4867 8.31747V8.05689H54.5987C54.7736 8.05689 54.9393 8.05004 55.096 8.03632C55.2527 8.02261 55.4323 8.01575 55.6348 8.01575C55.8558 8.01575 56.0699 8.03174 56.2771 8.06375C56.4844 8.09577 56.6687 8.1529 56.8297 8.23518C56.9907 8.31747 57.1198 8.43404 57.2165 8.5849C57.3132 8.73117 57.3616 8.9209 57.3616 9.15404C57.3616 9.30031 57.3339 9.43745 57.2787 9.56547C57.2282 9.6889 57.1543 9.79861 57.0576 9.89461C56.9657 9.99061 56.8552 10.0706 56.7261 10.1346C56.6018 10.1986 56.4658 10.2443 56.3186 10.2718V10.2992C56.4658 10.3175 56.6134 10.3518 56.7606 10.402C56.9126 10.4523 57.0486 10.5255 57.1682 10.6215C57.2877 10.7175 57.3844 10.8386 57.4583 10.9849C57.5364 11.1266 57.5757 11.2957 57.5757 11.4923C57.5757 11.7392 57.5204 11.9518 57.4099 12.13C57.2994 12.3083 57.1496 12.4546 56.9609 12.5689C56.7766 12.6832 56.5651 12.7678 56.3255 12.8226C56.0859 12.8729 55.8372 12.898 55.5795 12.898C55.4828 12.898 55.3771 12.8958 55.2618 12.8912C55.1465 12.8866 55.0317 12.8821 54.9164 12.8775C54.8012 12.8729 54.6885 12.8683 54.578 12.8638C54.4722 12.8592 54.3824 12.8569 54.3086 12.8569H53.4867ZM55.5726 12.4523C55.8627 12.4523 56.0906 12.3678 56.2564 12.1986C56.4222 12.0249 56.5051 11.7963 56.5051 11.5129C56.5051 11.3392 56.4774 11.1975 56.4222 11.0878C56.3669 10.9735 56.291 10.8843 56.1943 10.8203C56.0976 10.7518 55.9823 10.706 55.8489 10.6832C55.7155 10.6558 55.5705 10.642 55.4138 10.642H55.0477V12.4043C55.112 12.418 55.1789 12.4295 55.248 12.4386C55.3218 12.4477 55.4297 12.4523 55.5726 12.4523ZM55.2687 10.1963C55.3468 10.1963 55.4254 10.1941 55.5035 10.1895C55.5817 10.1803 55.6555 10.1712 55.7246 10.162C55.9042 10.0889 56.0492 9.97689 56.1597 9.82604C56.2702 9.67059 56.3255 9.49462 56.3255 9.29804C56.3255 9.01004 56.2495 8.79974 56.0976 8.66718C55.9456 8.53004 55.75 8.46147 55.5105 8.46147C55.409 8.46147 55.3218 8.46374 55.248 8.46832C55.1742 8.47291 55.1077 8.47977 55.0477 8.4889V10.1963H55.2687ZM61.5641 11.4169H61.8473C61.8654 11.4901 61.8818 11.5792 61.8956 11.6843C61.9138 11.7849 61.9276 11.8946 61.9371 12.0135C61.9509 12.1278 61.96 12.242 61.9647 12.3563C61.969 12.4706 61.9716 12.5735 61.9716 12.6649C61.8102 12.7655 61.6077 12.8363 61.3638 12.8775C61.1242 12.9186 60.8777 12.9392 60.6247 12.9392C60.2423 12.9392 59.8947 12.8935 59.5818 12.802C59.2731 12.706 59.0085 12.5575 58.7874 12.3563C58.5707 12.1506 58.4028 11.8923 58.2832 11.5815C58.1632 11.266 58.1036 10.8889 58.1036 10.45C58.1036 10.0158 58.168 9.64317 58.297 9.33232C58.4304 9.01689 58.6079 8.7586 58.8289 8.55747C59.0499 8.35634 59.3055 8.21002 59.5956 8.11861C59.89 8.02261 60.1986 7.97461 60.5211 7.97461C60.825 7.97461 61.0987 7.99745 61.3431 8.04318C61.5917 8.08432 61.7942 8.14145 61.9509 8.21461C61.9509 8.28777 61.9462 8.38145 61.9371 8.49575C61.9323 8.61005 61.9207 8.73117 61.9025 8.85918C61.8887 8.98261 61.8702 9.10604 61.8473 9.22947C61.8287 9.34831 61.8102 9.4489 61.792 9.53118H61.5019L61.122 8.49575C61.0806 8.47291 61.0137 8.45461 60.9217 8.44089C60.8294 8.42718 60.7352 8.42032 60.6385 8.42032C60.4495 8.42032 60.2725 8.4592 60.1067 8.5369C59.9409 8.61005 59.7933 8.7289 59.6646 8.89347C59.5356 9.05804 59.4341 9.27061 59.3607 9.53118C59.2869 9.78717 59.2502 10.0957 59.2502 10.4569C59.2502 11.1106 59.3815 11.6135 59.6439 11.9655C59.9064 12.3175 60.263 12.4935 60.7145 12.4935C60.8432 12.4935 60.9515 12.4843 61.0392 12.466C61.1311 12.4432 61.1933 12.4135 61.2256 12.3769L61.5641 11.4169ZM65.0958 8.05689H66.9469V8.31747C66.8688 8.36774 66.779 8.4112 66.6775 8.44775C66.5765 8.47977 66.4841 8.50261 66.4012 8.51632L65.0889 10.1689C65.1951 10.3152 65.3194 10.4821 65.4619 10.6695C65.6048 10.8523 65.7567 11.0443 65.9177 11.2455C66.0792 11.4421 66.245 11.6432 66.415 11.8489C66.5856 12.05 66.7513 12.242 66.9124 12.4249L67.2439 12.6238V12.8569H66.0421L65.7658 12.6649C65.6553 12.5278 65.5378 12.3769 65.4135 12.2123C65.2939 12.0432 65.1744 11.8695 65.0543 11.6912C64.9348 11.5083 64.8173 11.3255 64.7021 11.1426C64.5873 10.9597 64.4789 10.7815 64.3775 10.6078H64.0804V12.3975C64.1819 12.4158 64.2738 12.4432 64.3567 12.4798C64.4396 12.5163 64.5113 12.5552 64.5709 12.5963V12.8569H62.478V12.5963C62.5704 12.5506 62.6645 12.5118 62.7612 12.4798C62.8579 12.4432 62.9524 12.4158 63.0444 12.3975V8.51632C62.9386 8.50261 62.835 8.47745 62.7336 8.44089C62.6369 8.40434 62.5518 8.3632 62.478 8.31747V8.05689H64.5709V8.31747C64.5113 8.35402 64.4375 8.39062 64.3498 8.42718C64.2669 8.46374 64.1771 8.49348 64.0804 8.51632V10.258L64.488 10.162L65.6 8.51632C65.5081 8.49802 65.4161 8.4706 65.3237 8.43404C65.2365 8.3929 65.1605 8.35402 65.0958 8.31747V8.05689ZM68.8688 12.8569H67.1627V12.5963C67.2366 12.5506 67.3147 12.5118 67.3976 12.4798C67.4852 12.4432 67.5703 12.4158 67.6531 12.3975L69.4352 7.97461H69.9463L71.68 12.3975C71.7719 12.4158 71.8643 12.4432 71.9563 12.4798C72.0482 12.5118 72.129 12.5506 72.198 12.5963V12.8569H70.0361V12.5963C70.1237 12.5552 70.2178 12.5163 70.3193 12.4798C70.4207 12.4432 70.5174 12.4158 70.6094 12.3975L70.2088 11.3072H68.6754L68.2679 12.3975C68.4798 12.4249 68.6801 12.4912 68.8688 12.5963V12.8569ZM68.8412 10.8615H70.0637L69.6148 9.55175L69.4835 8.96204H69.4697L69.3178 9.56547L68.8412 10.8615ZM76.8223 8.05689V8.31747C76.7628 8.35402 76.682 8.39062 76.5806 8.42718C76.4796 8.46374 76.3712 8.49348 76.2559 8.51632V12.3975C76.376 12.4203 76.4817 12.4501 76.5737 12.4866C76.6661 12.5232 76.7489 12.5598 76.8223 12.5963V12.8569H74.6811V12.5963C74.7597 12.5552 74.8426 12.5186 74.9298 12.4866C75.0222 12.4501 75.1189 12.4203 75.2199 12.3975V10.8889H74.6397C74.5015 11.2043 74.3612 11.5106 74.2183 11.8078C74.0802 12.1049 73.9101 12.3815 73.7072 12.6375L73.424 12.8569H72.2291V12.6238L72.533 12.4592C72.8279 12.1438 73.0649 11.8535 73.2444 11.5883C73.4288 11.3232 73.5993 11.0763 73.7556 10.8478C73.636 10.8066 73.5164 10.7518 73.3964 10.6832C73.2768 10.61 73.1685 10.5186 73.0718 10.4089C72.9798 10.2992 72.9038 10.1689 72.8438 10.018C72.7886 9.86718 72.761 9.69117 72.761 9.49004C72.761 9.22488 72.8188 9.00091 72.9336 8.81804C73.0489 8.63062 73.2008 8.47977 73.3895 8.36547C73.5786 8.24662 73.797 8.16202 74.0457 8.11175C74.2943 8.06148 74.5499 8.03632 74.8124 8.03632C74.8586 8.03632 74.9186 8.0386 74.9919 8.04318C75.0705 8.04318 75.1508 8.04545 75.2337 8.05004C75.3213 8.05004 75.409 8.05231 75.4962 8.05689C75.5838 8.05689 75.6619 8.05689 75.731 8.05689H76.8223ZM74.7985 10.4843C74.8633 10.4843 74.9393 10.4821 75.0265 10.4775C75.1189 10.4683 75.1832 10.4592 75.2199 10.45V8.51632C75.1832 8.5072 75.1258 8.50034 75.0472 8.49575C74.9691 8.48662 74.9022 8.48204 74.8469 8.48204C74.7135 8.48204 74.587 8.50034 74.467 8.5369C74.3522 8.56891 74.2486 8.62377 74.1562 8.70147C74.069 8.77917 73.9973 8.87975 73.9421 9.00318C73.8916 9.12661 73.8661 9.27747 73.8661 9.45575C73.8661 9.79861 73.949 10.0569 74.1147 10.2306C74.2853 10.3998 74.5132 10.4843 74.7985 10.4843ZM29.7231 17.5163C29.5067 17.4798 29.3179 17.4135 29.1567 17.3175V17.0569H32.8659C32.8659 17.162 32.8612 17.2786 32.852 17.4066C32.8428 17.5346 32.8313 17.6626 32.8175 17.7906C32.8037 17.9186 32.7875 18.0421 32.7692 18.1609C32.7507 18.2797 32.7323 18.3872 32.7139 18.4832H32.4307L32.0025 17.5026H30.7592V19.066C30.8006 19.0615 30.8513 19.0569 30.9111 19.0523C30.971 19.0432 31.0308 19.0363 31.0907 19.0318C31.1552 19.0272 31.2173 19.0249 31.2772 19.0249C31.3417 19.0203 31.3969 19.018 31.443 19.018C31.6778 19.018 31.9011 19.0432 32.113 19.0935C32.3248 19.1437 32.509 19.226 32.6655 19.3403C32.8267 19.45 32.9533 19.594 33.0454 19.7723C33.1421 19.9506 33.1905 20.1655 33.1905 20.4169C33.1905 20.6592 33.1398 20.8717 33.0385 21.0546C32.9418 21.2375 32.806 21.3906 32.631 21.514C32.4606 21.6329 32.2557 21.7243 32.0163 21.7883C31.7814 21.8478 31.5259 21.8775 31.2496 21.8775C31.2265 21.8775 31.169 21.8752 31.0769 21.8706C30.9848 21.8706 30.8812 21.8683 30.7661 21.8638C30.651 21.8638 30.5358 21.8615 30.4207 21.8569C30.3056 21.8569 30.2135 21.8569 30.1445 21.8569H29.1567V21.5963C29.2442 21.5461 29.334 21.5049 29.4261 21.4729C29.5228 21.4363 29.6218 21.4112 29.7231 21.3975V17.5163ZM31.146 19.4638C31.0723 19.4638 31.0009 19.4683 30.9319 19.4775C30.8628 19.4821 30.8052 19.4912 30.7592 19.5049V21.4043C30.7776 21.4089 30.8052 21.4135 30.842 21.418C30.8835 21.4226 30.925 21.4272 30.9664 21.4318C31.0078 21.4318 31.047 21.4318 31.0838 21.4318C31.1253 21.4318 31.1575 21.4318 31.1805 21.4318C31.4522 21.4318 31.664 21.3449 31.816 21.1712C31.9725 20.9975 32.0508 20.7529 32.0508 20.4375C32.0508 20.1358 31.9794 19.898 31.8367 19.7243C31.6939 19.5506 31.4637 19.4638 31.146 19.4638ZM35.6606 21.8569H33.5816V21.5963C33.6691 21.5506 33.7612 21.5095 33.8579 21.4729C33.9546 21.4363 34.0513 21.4112 34.148 21.3975V17.5163C34.0559 17.4935 33.9592 17.4683 33.8579 17.4409C33.7566 17.4089 33.6645 17.3677 33.5816 17.3175V17.0569H35.6606V17.3175C35.5916 17.3586 35.5133 17.3975 35.4258 17.434C35.3383 17.4706 35.2439 17.498 35.1426 17.5163V20.122L35.0735 20.6569L35.412 20.0946L37.1526 17.6809V17.5163C36.9361 17.4661 36.7543 17.3998 36.6069 17.3175V17.0569H38.686V17.3175C38.6076 17.3677 38.5179 17.4089 38.4166 17.4409C38.3199 17.4683 38.2208 17.4935 38.1196 17.5163V21.3975C38.2255 21.4158 38.3245 21.4432 38.4166 21.4798C38.5133 21.5118 38.6031 21.5506 38.686 21.5963V21.8569H36.6069V21.5963C36.6714 21.5643 36.7473 21.53 36.8348 21.4935C36.9269 21.4523 37.0236 21.4203 37.1249 21.3975V18.7986L37.194 18.2569L36.8832 18.7986L35.115 21.2466V21.3975C35.2209 21.4203 35.3199 21.4501 35.412 21.4866C35.5041 21.5232 35.5869 21.5598 35.6606 21.5963V21.8569ZM39.5306 17.5163C39.3142 17.4798 39.1254 17.4135 38.9643 17.3175V17.0569H42.6734C42.6734 17.162 42.6688 17.2786 42.6596 17.4066C42.6504 17.5346 42.6388 17.6626 42.625 17.7906C42.6112 17.9186 42.5951 18.0421 42.5767 18.1609C42.5582 18.2797 42.5399 18.3872 42.5214 18.4832H42.2382L41.81 17.5026H40.5667V19.066C40.6082 19.0615 40.6588 19.0569 40.7187 19.0523C40.7785 19.0432 40.8384 19.0363 40.8983 19.0318C40.9627 19.0272 41.0249 19.0249 41.0847 19.0249C41.1492 19.0203 41.2045 19.018 41.2505 19.018C41.4854 19.018 41.7087 19.0432 41.9205 19.0935C42.1323 19.1437 42.3165 19.226 42.4731 19.3403C42.6342 19.45 42.7609 19.594 42.853 19.7723C42.9497 19.9506 42.998 20.1655 42.998 20.4169C42.998 20.6592 42.9474 20.8717 42.8461 21.0546C42.7494 21.2375 42.6135 21.3906 42.4385 21.514C42.2681 21.6329 42.0633 21.7243 41.8238 21.7883C41.589 21.8478 41.3334 21.8775 41.0571 21.8775C41.0341 21.8775 40.9765 21.8752 40.8844 21.8706C40.7924 21.8706 40.6888 21.8683 40.5736 21.8638C40.4585 21.8638 40.3434 21.8615 40.2283 21.8569C40.1131 21.8569 40.0211 21.8569 39.952 21.8569H38.9643V21.5963C39.0518 21.5461 39.1416 21.5049 39.2336 21.4729C39.3303 21.4363 39.4293 21.4112 39.5306 21.3975V17.5163ZM40.9535 19.4638C40.8798 19.4638 40.8085 19.4683 40.7394 19.4775C40.6703 19.4821 40.6128 19.4912 40.5667 19.5049V21.4043C40.5851 21.4089 40.6128 21.4135 40.6496 21.418C40.691 21.4226 40.7325 21.4272 40.7739 21.4318C40.8154 21.4318 40.8545 21.4318 40.8913 21.4318C40.9328 21.4318 40.965 21.4318 40.988 21.4318C41.2597 21.4318 41.4715 21.3449 41.6235 21.1712C41.7801 20.9975 41.8583 20.7529 41.8583 20.4375C41.8583 20.1358 41.787 19.898 41.6442 19.7243C41.5015 19.5506 41.2712 19.4638 40.9535 19.4638ZM44.7017 17.5849C44.5588 17.5621 44.4228 17.5255 44.2942 17.4752C44.1698 17.4249 44.0615 17.3723 43.9695 17.3175V17.0569H47.9549V17.3175C47.8859 17.3586 47.8004 17.3975 47.6994 17.434C47.6027 17.4706 47.4991 17.498 47.3886 17.5163V21.3975C47.4943 21.4158 47.5932 21.4432 47.6856 21.4798C47.7823 21.5163 47.8721 21.5552 47.9549 21.5963V21.8569H45.8276V21.5963C45.9057 21.5552 45.9886 21.5186 46.0762 21.4866C46.1682 21.4501 46.2601 21.4203 46.3525 21.3975V17.5026H45.2266C45.2128 18.1975 45.1804 18.778 45.1299 19.2443C45.079 19.706 45.0168 20.0878 44.9434 20.3895C44.8696 20.6912 44.7867 20.9312 44.6948 21.1095C44.6072 21.2832 44.5152 21.434 44.4185 21.562C44.3309 21.6809 44.2204 21.7746 44.087 21.8432C43.9531 21.9072 43.8245 21.9392 43.7002 21.9392C43.6402 21.9163 43.5827 21.8706 43.5275 21.802C43.4722 21.7289 43.4213 21.6466 43.3755 21.5552C43.3293 21.4638 43.2901 21.3678 43.2581 21.2672C43.2301 21.1666 43.2141 21.0729 43.2093 20.986L43.3963 20.7255L44.2182 20.9243C44.2778 20.7963 44.3356 20.6432 44.3909 20.4649C44.4505 20.282 44.5035 20.0581 44.5497 19.7929C44.5955 19.5277 44.6326 19.2146 44.6603 18.8535C44.6879 18.4923 44.7017 18.0695 44.7017 17.5849ZM50.3111 21.8569H48.2321V21.5963C48.3197 21.5506 48.4117 21.5095 48.5084 21.4729C48.6051 21.4363 48.7018 21.4112 48.7985 21.3975V17.5163C48.7065 17.4935 48.6098 17.4683 48.5084 17.4409C48.4074 17.4089 48.315 17.3677 48.2321 17.3175V17.0569H50.3111V17.3175C50.2421 17.3586 50.1639 17.3975 50.0763 17.434C49.9891 17.4706 49.8945 17.498 49.7931 17.5163V20.122L49.724 20.6569L50.0625 20.0946L51.8031 17.6809V17.5163C51.5868 17.4661 51.405 17.3998 51.2574 17.3175V17.0569H53.3364V17.3175C53.2583 17.3677 53.1685 17.4089 53.0671 17.4409C52.9704 17.4683 52.8715 17.4935 52.7701 17.5163V21.3975C52.8763 21.4158 52.9751 21.4432 53.0671 21.4798C53.1638 21.5118 53.2536 21.5506 53.3364 21.5963V21.8569H51.2574V21.5963C51.3222 21.5643 51.3981 21.53 51.4853 21.4935C51.5777 21.4523 51.6744 21.4203 51.7754 21.3975V18.7986L51.8445 18.2569L51.5337 18.7986L49.7655 21.2466V21.3975C49.8717 21.4203 49.9705 21.4501 50.0625 21.4866C50.1549 21.5232 50.2377 21.5598 50.3111 21.5963V21.8569ZM53.7461 19.4569C53.7461 19.1003 53.7966 18.7712 53.8981 18.4695C53.9995 18.1632 54.1489 17.9003 54.347 17.6809C54.5452 17.4569 54.7891 17.2832 55.0792 17.1598C55.3693 17.0363 55.703 16.9746 56.0807 16.9746C56.4585 16.9746 56.7922 17.0363 57.0823 17.1598C57.3724 17.2832 57.6141 17.4569 57.8075 17.6809C58.0056 17.9003 58.155 18.1632 58.2565 18.4695C58.3579 18.7712 58.4084 19.1003 58.4084 19.4569C58.4084 19.8135 58.3579 20.1449 58.2565 20.4512C58.155 20.7529 58.0056 21.0157 57.8075 21.2398C57.6141 21.4592 57.3724 21.6306 57.0823 21.754C56.7922 21.8775 56.4585 21.9392 56.0807 21.9392C55.703 21.9392 55.3693 21.8775 55.0792 21.754C54.7891 21.6306 54.5452 21.4592 54.347 21.2398C54.1489 21.0157 53.9995 20.7529 53.8981 20.4512C53.7966 20.1449 53.7461 19.8135 53.7461 19.4569ZM54.9203 19.4569C54.9203 19.7495 54.9432 20.0215 54.9894 20.2729C55.0356 20.5198 55.1068 20.7346 55.2035 20.9175C55.305 21.0958 55.4315 21.2375 55.5834 21.3426C55.7401 21.4432 55.9266 21.4935 56.1429 21.4935C56.341 21.4935 56.509 21.4432 56.6471 21.3426C56.7852 21.2375 56.8979 21.0958 56.9856 20.9175C57.0732 20.7346 57.1353 20.5198 57.172 20.2729C57.2135 20.0215 57.2342 19.7495 57.2342 19.4569C57.2342 19.1643 57.2113 18.8946 57.1651 18.6478C57.1237 18.3963 57.0546 18.1815 56.9579 18.0032C56.866 17.8203 56.7416 17.6786 56.5849 17.578C56.433 17.4729 56.2465 17.4203 56.0255 17.4203C55.8135 17.4203 55.6365 17.4729 55.4936 17.578C55.3507 17.6786 55.2359 17.8203 55.1483 18.0032C55.0654 18.1815 55.0054 18.3963 54.9687 18.6478C54.9363 18.8946 54.9203 19.1643 54.9203 19.4569ZM62.0372 21.8569H59.6612V21.5963C59.7531 21.5598 59.8568 21.5232 59.972 21.4866C60.0916 21.4455 60.2116 21.4158 60.3312 21.3975V17.5026H59.53L59.0879 18.6752H58.8047C58.7861 18.5838 58.768 18.4672 58.7495 18.3255C58.7309 18.1837 58.7149 18.0375 58.7011 17.8866C58.6873 17.7358 58.6756 17.5872 58.6666 17.4409C58.6575 17.29 58.6528 17.162 58.6528 17.0569H63.0526C63.0526 17.1666 63.0478 17.2946 63.0388 17.4409C63.0297 17.5872 63.018 17.7358 63.0042 17.8866C62.9904 18.0375 62.9744 18.1837 62.9559 18.3255C62.9373 18.4626 62.9192 18.5792 62.9006 18.6752H62.6105L62.1685 17.5026H61.3672V21.3975C61.4868 21.4203 61.6042 21.4477 61.7195 21.4798C61.8391 21.5118 61.9453 21.5506 62.0372 21.5963V21.8569ZM66.9275 17.0569C66.9184 17.2626 66.902 17.4752 66.8791 17.6946C66.8562 17.914 66.826 18.1198 66.7893 18.3118H66.5061L66.1884 17.5026H64.8968V19.1826H65.7394L66.0434 18.6546H66.2644C66.2873 18.8786 66.2989 19.1278 66.2989 19.402C66.2989 19.6763 66.2873 19.9323 66.2644 20.17H66.0434L65.7394 19.6283H64.8968V21.4112H66.2437L66.6097 20.5403H66.8929C66.9115 20.6272 66.9296 20.7255 66.9482 20.8352C66.9667 20.9449 66.9806 21.0592 66.9896 21.178C67.0034 21.2923 67.0125 21.4089 67.0173 21.5278C67.0263 21.6466 67.0311 21.7563 67.0311 21.8569H63.2943V21.5963C63.3725 21.5552 63.4601 21.5163 63.5568 21.4798C63.6535 21.4432 63.7549 21.4158 63.8607 21.3975V17.5163C63.7688 17.498 63.6695 17.4729 63.5637 17.4409C63.4623 17.4043 63.3725 17.3632 63.2943 17.3175V17.0569H66.9275ZM70.0806 17.0569H71.9317V17.3175C71.8535 17.3677 71.7637 17.4112 71.6623 17.4478C71.5608 17.4798 71.4689 17.5026 71.386 17.5163L70.0737 19.1689C70.1794 19.3152 70.3037 19.4821 70.4466 19.6695C70.5895 19.8523 70.7415 20.0443 70.9025 20.2455C71.0635 20.4421 71.2293 20.6432 71.3998 20.8489C71.5703 21.05 71.7361 21.242 71.8971 21.4249L72.2287 21.6238V21.8569H71.0268L70.7506 21.6649C70.64 21.5278 70.5226 21.3769 70.3983 21.2123C70.2787 21.0432 70.1587 20.8695 70.0391 20.6912C69.9195 20.5083 69.8021 20.3255 69.6869 20.1426C69.5716 19.9597 69.4637 19.7815 69.3622 19.6078H69.0652V21.3975C69.1667 21.4158 69.2586 21.4432 69.3415 21.4798C69.4244 21.5163 69.4956 21.5552 69.5556 21.5963V21.8569H67.4628V21.5963C67.5547 21.5506 67.6493 21.5118 67.746 21.4798C67.8427 21.4432 67.9372 21.4158 68.0292 21.3975V17.5163C67.9234 17.5026 67.8198 17.4775 67.7183 17.4409C67.6216 17.4043 67.5366 17.3632 67.4628 17.3175V17.0569H69.5556V17.3175C69.4956 17.354 69.4222 17.3906 69.3346 17.4272C69.2517 17.4637 69.1619 17.4935 69.0652 17.5163V19.258L69.4727 19.162L70.5848 17.5163C70.4928 17.498 70.4004 17.4706 70.3085 17.434C70.2209 17.3929 70.1449 17.354 70.0806 17.3175V17.0569ZM73.8536 21.8569H72.1475V21.5963C72.2213 21.5506 72.2995 21.5118 72.3824 21.4798C72.47 21.4432 72.555 21.4158 72.6379 21.3975L74.42 16.9746H74.9311L76.6648 21.3975C76.7567 21.4158 76.8491 21.4432 76.941 21.4798C77.033 21.5118 77.1137 21.5506 77.1828 21.5963V21.8569H75.0209V21.5963C75.1085 21.5552 75.2026 21.5163 75.3041 21.4798C75.4055 21.4432 75.5022 21.4158 75.5942 21.3975L75.1935 20.3072H73.6602L73.2526 21.3975C73.4646 21.4249 73.6649 21.4912 73.8536 21.5963V21.8569ZM73.8259 19.8615H75.0485L74.5995 18.5518L74.4683 17.962H74.4545L74.3025 18.5655L73.8259 19.8615Z" fill="#12263A"/>
<path id="logo-ico" d="M23.2607 8.05786C23.1594 7.95736 23.0219 7.90113 22.8791 7.90113C22.8776 7.90113 22.8776 7.90113 22.8776 7.90113L21.2602 7.90713V5.75913C21.2602 5.46286 21.0184 5.22363 20.7208 5.22363H20.0454C15.9923 5.22363 13.6179 5.80713 12.0866 7.21786C10.5553 5.80713 8.18081 5.22363 4.12776 5.22363H3.45313C3.15548 5.22363 2.91373 5.46286 2.91373 5.75913V7.90713L1.29628 7.90113C1.14972 7.90036 1.0145 7.95736 0.913263 8.05786C0.812031 8.15836 0.755371 8.29563 0.755371 8.43736V22.2321C0.755371 22.5284 0.99712 22.7676 1.29553 22.7676H1.97016C9.23168 22.7676 10.7834 24.3944 10.9367 24.5819C11.0395 24.7041 11.1921 24.7769 11.3545 24.7769H12.8201C12.9833 24.7769 13.1359 24.7041 13.2387 24.5819C13.3913 24.3944 14.9437 22.7676 22.2053 22.7676H22.8799C23.1783 22.7676 23.42 22.5284 23.42 22.2321V8.43736C23.4193 8.29563 23.3619 8.15836 23.2607 8.05786ZM1.83493 21.6966V8.97436L2.91449 8.97886V21.7064C2.60928 21.6996 2.29501 21.6966 1.97016 21.6966H1.83493ZM3.99329 21.7409V8.44863C3.99329 8.44713 3.99329 8.44563 3.99329 8.44263V6.29463H4.12852C8.0728 6.29463 10.2485 6.84813 11.5472 8.19513V23.6691C10.8325 23.0174 8.92496 21.9681 3.99329 21.7409ZM12.6275 23.6691V8.19513C13.9254 6.84813 16.1026 6.29463 20.0461 6.29463H20.1814V8.44263V21.7409C15.2482 21.9681 13.3421 23.0174 12.6275 23.6691ZM22.3397 21.6966H22.2045C21.8789 21.6966 21.5654 21.6996 21.2602 21.7064V8.97886L22.3397 8.97436V21.6966Z" fill="#12263A"/>
<path id="logo-bottom-line" d="M27.6289 24.4287H78.5688" stroke="#12263A" stroke-linecap="square"/>
<path id="logo-top-line" d="M27.6289 5.57129C47.5222 5.57129 58.6755 5.57129 78.5688 5.57129" stroke="#12263A" stroke-linecap="square"/>
</g>
<defs>
<clipPath id="clip0">
<rect width="79" height="30" fill="white"/>
</clipPath>
</defs>
</svg>
