<svg width="34" height="34" viewBox="0 0 34 34" fill="none" xmlns="http://www.w3.org/2000/svg">
<g id="vkontakte-logo">
<g id="Group">
<path id="Vector" d="M18.8325 18.7382C18.2874 18.4209 17.5298 18.4209 16.9143 18.4209H14.8931V22.5859H16.7482C17.4349 22.5859 18.3108 22.6351 18.9029 22.2194C19.4466 21.8535 19.7544 21.1352 19.7544 20.4514C19.7544 19.816 19.3761 19.0559 18.8325 18.7382ZM18.0699 15.1814C18.5197 14.8389 18.7556 14.2283 18.7556 13.6659C18.7556 13.0549 18.4719 12.4684 17.9516 12.1511C17.4073 11.8338 16.4124 11.9071 15.7735 11.9071H14.8931V15.5727H16.0579C16.7206 15.5724 17.5022 15.6212 18.0699 15.1814ZM28.0234 0H5.97585C2.67573 0 0 2.67573 0 5.97656V28.0234C0 31.3236 2.67573 34 5.97585 34H28.0234C31.3236 34 34 31.3236 34 28.0234V5.97656C34 2.67573 31.3236 0 28.0234 0ZM17.9222 25.6895H10.9763V8.92535H18.5654C20.7637 8.92535 22.792 10.3247 22.792 12.7929C22.792 14.6986 21.7281 16.0037 20.371 16.4092V16.4585C22.3833 16.8743 23.8205 17.9672 23.8205 20.604C23.8205 23.0442 22.1588 25.6895 17.9222 25.6895Z" fill="#12263A"/>
</g>
</g>
</svg>
