<svg width="35" height="35" viewBox="0 0 35 35" fill="none" xmlns="http://www.w3.org/2000/svg">
<path d="M10 0.625C4.82313 0.625 0.625 4.82313 0.625 10V25C0.625 30.1769 4.82313 34.375 10 34.375H25C30.1769 34.375 34.375 30.1769 34.375 25V10C34.375 4.82313 30.1769 0.625 25 0.625H10ZM28.75 4.375C29.785 4.375 30.625 5.215 30.625 6.25C30.625 7.285 29.785 8.125 28.75 8.125C27.715 8.125 26.875 7.285 26.875 6.25C26.875 5.215 27.715 4.375 28.75 4.375ZM17.5 8.125C22.6769 8.125 26.875 12.3231 26.875 17.5C26.875 22.6769 22.6769 26.875 17.5 26.875C12.3231 26.875 8.125 22.6769 8.125 17.5C8.125 12.3231 12.3231 8.125 17.5 8.125ZM17.5 11.875C16.0082 11.875 14.5774 12.4676 13.5225 13.5225C12.4676 14.5774 11.875 16.0082 11.875 17.5C11.875 18.9918 12.4676 20.4226 13.5225 21.4775C14.5774 22.5324 16.0082 23.125 17.5 23.125C18.9918 23.125 20.4226 22.5324 21.4775 21.4775C22.5324 20.4226 23.125 18.9918 23.125 17.5C23.125 16.0082 22.5324 14.5774 21.4775 13.5225C20.4226 12.4676 18.9918 11.875 17.5 11.875Z" fill="#12263A"/>
</svg>
