<svg width="126" height="48" viewBox="0 0 126 48" fill="none" xmlns="http://www.w3.org/2000/svg">
<g id="logo" clip-path="url(#clip0)">
<path id="logo-text" d="M53.9628 20.5714H50.5698V20.1545C50.7386 20.0741 50.9075 20.0045 51.0765 19.9461C51.2454 19.8876 51.4143 19.8509 51.5833 19.8363V17.2471C51.3776 17.3714 51.1022 17.4848 50.757 17.5872C50.4118 17.6896 50.0336 17.7408 49.6223 17.7408C49.3286 17.7408 49.0495 17.7115 48.7851 17.653C48.528 17.5872 48.3004 17.4775 48.1021 17.3239C47.9111 17.1703 47.7569 16.9618 47.6394 16.6985C47.5292 16.4279 47.4741 16.0877 47.4741 15.6782V13.6265C47.3346 13.6046 47.195 13.5643 47.0555 13.5058C46.916 13.4473 46.7911 13.3815 46.681 13.3083V12.8914H49.7986V13.3083C49.7178 13.3668 49.6186 13.4254 49.5012 13.4839C49.391 13.5424 49.2661 13.59 49.1266 13.6265V15.2942C49.1266 15.5501 49.1413 15.7805 49.1707 15.9854C49.2 16.1902 49.2588 16.3657 49.3469 16.512C49.4351 16.6583 49.5525 16.7717 49.6995 16.8521C49.8537 16.9325 50.052 16.9728 50.2943 16.9728C50.5367 16.9728 50.7643 16.9399 50.9774 16.8741C51.1977 16.8009 51.3996 16.7058 51.5833 16.5888V13.6265C51.4584 13.59 51.3372 13.5461 51.2197 13.4949C51.1022 13.4364 50.9957 13.3742 50.9002 13.3083V12.8914H53.9628V13.3083C53.8673 13.3742 53.7571 13.4364 53.6323 13.4949C53.5074 13.5461 53.3752 13.59 53.2357 13.6265V19.8363C53.3826 19.8656 53.5184 19.9131 53.6433 19.979C53.7682 20.0375 53.8747 20.096 53.9628 20.1545V20.5714ZM57.7144 20.5714H54.3984V20.1545C54.538 20.0813 54.6849 20.0155 54.8391 19.957C54.9933 19.8985 55.1476 19.8583 55.3018 19.8363V13.6265C55.1549 13.59 55.0007 13.5497 54.8391 13.5058C54.6775 13.4546 54.5306 13.3888 54.3984 13.3083V12.8914H57.7144V13.3083C57.6042 13.3742 57.4794 13.4364 57.3398 13.4949C57.2002 13.5533 57.0497 13.5972 56.8881 13.6265V17.7957L56.778 18.6514L57.3178 17.7518L60.0939 13.8898V13.6265C59.7488 13.5461 59.4586 13.44 59.2236 13.3083V12.8914H62.5395V13.3083C62.4147 13.3888 62.2715 13.4546 62.1099 13.5058C61.9557 13.5497 61.7978 13.59 61.6362 13.6265V19.8363C61.8051 19.8656 61.963 19.9095 62.1099 19.968C62.2641 20.0192 62.4073 20.0813 62.5395 20.1545V20.5714H59.2236V20.1545C59.3264 20.1033 59.4476 20.0484 59.5872 19.9899C59.734 19.9241 59.8882 19.8729 60.0498 19.8363V15.6782L60.16 14.8114L59.6643 15.6782L56.8441 19.595V19.8363C57.013 19.8729 57.1709 19.9205 57.3178 19.979C57.4646 20.0375 57.5968 20.096 57.7144 20.1545V20.5714ZM68.712 18.2674H69.1635C69.1931 18.3845 69.2186 18.5271 69.2406 18.6953C69.2702 18.8562 69.2923 19.0318 69.3067 19.2219C69.3287 19.4048 69.3439 19.5876 69.3508 19.7705C69.3584 19.9534 69.3618 20.118 69.3618 20.2642C69.105 20.4252 68.7818 20.5385 68.3926 20.6043C68.0106 20.6702 67.6177 20.7031 67.2138 20.7031C66.6042 20.7031 66.0497 20.6299 65.5503 20.4837C65.0582 20.3301 64.636 20.0923 64.2834 19.7705C63.9382 19.4414 63.6702 19.0281 63.4792 18.5307C63.2882 18.0261 63.1928 17.4226 63.1928 16.7205C63.1928 16.0256 63.2956 15.4295 63.5013 14.9321C63.7142 14.4274 63.997 14.0141 64.3495 13.6923C64.7021 13.3705 65.1097 13.1364 65.5724 12.9902C66.0423 12.8366 66.5344 12.7598 67.0486 12.7598C67.5333 12.7598 67.9702 12.7963 68.3595 12.8695C68.7561 12.9353 69.0795 13.0267 69.3287 13.1438C69.3287 13.2608 69.3219 13.4107 69.3067 13.5936C69.2998 13.7765 69.2812 13.9703 69.2516 14.1751C69.2296 14.3726 69.2007 14.5701 69.1635 14.7675C69.1346 14.9577 69.105 15.1186 69.0754 15.2503H68.6129L68.007 13.5936C67.9409 13.557 67.8344 13.5278 67.6875 13.5058C67.5406 13.4839 67.3901 13.4729 67.2358 13.4729C66.9347 13.4729 66.652 13.5351 66.3876 13.6594C66.1232 13.7765 65.8881 13.9666 65.6825 14.2299C65.4769 14.4933 65.3153 14.8334 65.1978 15.2503C65.0803 15.6599 65.0215 16.1536 65.0215 16.7314C65.0215 17.7773 65.2309 18.582 65.6495 19.1451C66.0681 19.7083 66.6372 19.9899 67.357 19.9899C67.5626 19.9899 67.7352 19.9753 67.8748 19.9461C68.0216 19.9095 68.1208 19.8619 68.1722 19.8034L68.712 18.2674ZM75.2115 20.5714H71.4219V20.1545C71.5692 20.096 71.7345 20.0375 71.9176 19.979C72.109 19.9131 72.2997 19.8656 72.4904 19.8363V13.6046H71.2125L70.5075 15.4807H70.0558C70.0269 15.3344 69.9973 15.1479 69.9677 14.9211C69.9388 14.6944 69.9126 14.4603 69.8906 14.219C69.8686 13.9776 69.8506 13.7399 69.8355 13.5058C69.821 13.2645 69.8135 13.0596 69.8135 12.8914H76.8309C76.8309 13.067 76.824 13.2718 76.8089 13.5058C76.7944 13.7399 76.7758 13.9776 76.7538 14.219C76.7318 14.4603 76.7063 14.6944 76.6767 14.9211C76.6478 15.1406 76.6182 15.3271 76.5885 15.4807H76.1259L75.4208 13.6046H74.1429V19.8363C74.3343 19.8729 74.5216 19.9168 74.7047 19.968C74.8962 20.0192 75.0648 20.0813 75.2115 20.1545V20.5714ZM77.211 16.7314C77.211 16.1609 77.2915 15.6343 77.4533 15.1515C77.6144 14.6615 77.8534 14.2409 78.1694 13.8898C78.4847 13.5314 78.8744 13.2535 79.3371 13.056C79.7998 12.8585 80.3321 12.7598 80.9345 12.7598C81.5363 12.7598 82.0692 12.8585 82.5319 13.056C82.9946 13.2535 83.3802 13.5314 83.6886 13.8898C84.004 14.2409 84.2429 14.6615 84.4047 15.1515C84.5658 15.6343 84.647 16.1609 84.647 16.7314C84.647 17.3019 84.5658 17.8322 84.4047 18.3223C84.2429 18.805 84.004 19.2256 83.6886 19.584C83.3802 19.9351 82.9946 20.2094 82.5319 20.4069C82.0692 20.6043 81.5363 20.7031 80.9345 20.7031C80.3321 20.7031 79.7998 20.6043 79.3371 20.4069C78.8744 20.2094 78.4847 19.9351 78.1694 19.584C77.8534 19.2256 77.6144 18.805 77.4533 18.3223C77.2915 17.8322 77.211 17.3019 77.211 16.7314ZM79.0838 16.7314C79.0838 17.1996 79.1203 17.6347 79.1939 18.037C79.2669 18.432 79.3812 18.7757 79.5354 19.0683C79.6965 19.3536 79.899 19.5804 80.1413 19.7486C80.3906 19.9095 80.688 19.9899 81.0337 19.9899C81.349 19.9899 81.6175 19.9095 81.8379 19.7486C82.0582 19.5804 82.2379 19.3536 82.3777 19.0683C82.5167 18.7757 82.6159 18.432 82.6751 18.037C82.7412 17.6347 82.7743 17.1996 82.7743 16.7314C82.7743 16.2633 82.7371 15.8318 82.6641 15.4368C82.598 15.0345 82.4878 14.6907 82.3336 14.4055C82.1863 14.1129 81.988 13.8862 81.7387 13.7253C81.4964 13.557 81.1989 13.4729 80.8464 13.4729C80.5083 13.4729 80.2253 13.557 79.9981 13.7253C79.7702 13.8862 79.5864 14.1129 79.4473 14.4055C79.3151 14.6907 79.2194 15.0345 79.1609 15.4368C79.1092 15.8318 79.0838 16.2633 79.0838 16.7314ZM85.3066 20.5714V20.1545C85.4464 20.0741 85.5931 20.0045 85.7473 19.9461C85.9091 19.8876 86.0633 19.8509 86.21 19.8363V13.6265C86.0633 13.5972 85.9091 13.557 85.7473 13.5058C85.5855 13.4473 85.4388 13.3815 85.3066 13.3083V12.8914H87.0803C87.3591 12.8914 87.6235 12.8805 87.8735 12.8585C88.1234 12.8366 88.4098 12.8256 88.7327 12.8256C89.0853 12.8256 89.4268 12.8512 89.7573 12.9024C90.0878 12.9536 90.3818 13.045 90.6386 13.1767C90.8954 13.3083 91.1013 13.4949 91.2555 13.7362C91.4097 13.9703 91.4868 14.2738 91.4868 14.6469C91.4868 14.8809 91.4428 15.1003 91.3547 15.3051C91.2741 15.5026 91.1563 15.6782 91.0021 15.8318C90.8555 15.9854 90.6792 16.1134 90.4733 16.2158C90.275 16.3181 90.0582 16.3913 89.8234 16.4352V16.4791C90.0582 16.5084 90.2936 16.5632 90.5284 16.6437C90.7708 16.7241 90.9877 16.8411 91.1784 16.9947C91.3691 17.1483 91.5233 17.3422 91.6411 17.5762C91.7657 17.803 91.8284 18.0736 91.8284 18.3881C91.8284 18.7831 91.7402 19.1232 91.564 19.4085C91.3877 19.6937 91.1488 19.9277 90.8479 20.1106C90.5539 20.2935 90.2165 20.4288 89.8344 20.5166C89.4523 20.597 89.0557 20.6373 88.6446 20.6373C88.4904 20.6373 88.3217 20.6336 88.1379 20.6263C87.954 20.6189 87.7709 20.6117 87.587 20.6043C87.4032 20.597 87.2235 20.5897 87.0472 20.5824C86.8786 20.5751 86.7353 20.5714 86.6176 20.5714H85.3066ZM88.6336 19.9241C89.0963 19.9241 89.4598 19.7888 89.7242 19.5182C89.9886 19.2402 90.1208 18.8745 90.1208 18.421C90.1208 18.1431 90.0767 17.9163 89.9886 17.7408C89.9005 17.5579 89.7793 17.4153 89.6251 17.3129C89.4708 17.2032 89.287 17.13 89.0742 17.0935C88.8615 17.0496 88.6302 17.0277 88.3802 17.0277H87.7964V19.8473C87.8989 19.8693 88.0057 19.8876 88.1158 19.9022C88.2336 19.9168 88.4057 19.9241 88.6336 19.9241ZM88.1489 16.3145C88.2735 16.3145 88.3988 16.3109 88.5234 16.3035C88.6481 16.2889 88.7658 16.2743 88.876 16.2597C89.1624 16.1426 89.3937 15.9634 89.57 15.7221C89.7463 15.4733 89.8344 15.1918 89.8344 14.8773C89.8344 14.4165 89.7132 14.08 89.4708 13.8679C89.2285 13.6485 88.9166 13.5387 88.5345 13.5387C88.3726 13.5387 88.2336 13.5424 88.1158 13.5497C87.9981 13.557 87.8921 13.568 87.7964 13.5826V16.3145H88.1489ZM98.1896 18.2674H98.6413C98.6702 18.3845 98.6964 18.5271 98.7184 18.6953C98.7473 18.8562 98.7694 19.0318 98.7845 19.2219C98.8066 19.4048 98.821 19.5876 98.8286 19.7705C98.8355 19.9534 98.8396 20.118 98.8396 20.2642C98.5821 20.4252 98.2592 20.5385 97.8702 20.6043C97.488 20.6702 97.0949 20.7031 96.6914 20.7031C96.0814 20.7031 95.5271 20.6299 95.0279 20.4837C94.5356 20.3301 94.1136 20.0923 93.761 19.7705C93.4154 19.4414 93.1476 19.0281 92.9568 18.5307C92.7654 18.0261 92.6704 17.4226 92.6704 16.7205C92.6704 16.0256 92.773 15.4295 92.9789 14.9321C93.1916 14.4274 93.4746 14.0141 93.8271 13.6923C94.1797 13.3705 94.5873 13.1364 95.05 12.9902C95.5195 12.8366 96.0118 12.7598 96.5261 12.7598C97.0109 12.7598 97.4474 12.7963 97.8371 12.8695C98.2337 12.9353 98.5566 13.0267 98.8066 13.1438C98.8066 13.2608 98.799 13.4107 98.7845 13.5936C98.7769 13.7765 98.7584 13.9703 98.7294 14.1751C98.7074 14.3726 98.6778 14.5701 98.6413 14.7675C98.6117 14.9577 98.5821 15.1186 98.5532 15.2503H98.0905L97.4846 13.5936C97.4185 13.557 97.3118 13.5278 97.1651 13.5058C97.0178 13.4839 96.8677 13.4729 96.7134 13.4729C96.4119 13.4729 96.1296 13.5351 95.8652 13.6594C95.6008 13.7765 95.3653 13.9666 95.1601 14.2299C94.9543 14.4933 94.7925 14.8334 94.6754 15.2503C94.5577 15.6599 94.4991 16.1536 94.4991 16.7314C94.4991 17.7773 94.7084 18.582 95.1271 19.1451C95.5457 19.7083 96.1144 19.9899 96.8346 19.9899C97.0398 19.9899 97.2126 19.9753 97.3524 19.9461C97.499 19.9095 97.5982 19.8619 97.6498 19.8034L98.1896 18.2674ZM103.822 12.8914H106.775V13.3083C106.65 13.3888 106.507 13.4583 106.345 13.5168C106.184 13.568 106.037 13.6046 105.905 13.6265L103.811 16.2706C103.981 16.5047 104.179 16.7717 104.406 17.0715C104.634 17.3641 104.877 17.6713 105.133 17.9931C105.391 18.3077 105.655 18.6295 105.927 18.9586C106.199 19.2804 106.463 19.5876 106.72 19.8802L107.249 20.1984V20.5714H105.332L104.891 20.2642C104.715 20.0448 104.528 19.8034 104.329 19.5401C104.138 19.2695 103.948 18.9915 103.756 18.7063C103.566 18.4137 103.378 18.1212 103.195 17.8286C103.011 17.536 102.839 17.2507 102.677 16.9728H102.203V19.8363C102.365 19.8656 102.512 19.9095 102.644 19.968C102.776 20.0265 102.89 20.0887 102.985 20.1545V20.5714H99.6472V20.1545C99.7946 20.0813 99.9447 20.0192 100.099 19.968C100.253 19.9095 100.404 19.8656 100.551 19.8363V13.6265C100.382 13.6046 100.217 13.5643 100.055 13.5058C99.9006 13.4473 99.765 13.3815 99.6472 13.3083V12.8914H102.985V13.3083C102.89 13.3668 102.772 13.4254 102.633 13.4839C102.5 13.5424 102.357 13.59 102.203 13.6265V16.4133L102.853 16.2597L104.627 13.6265C104.48 13.5972 104.333 13.5533 104.186 13.4949C104.047 13.429 103.926 13.3668 103.822 13.3083V12.8914ZM109.84 20.5714H107.119V20.1545C107.237 20.0813 107.361 20.0192 107.494 19.968C107.633 19.9095 107.769 19.8656 107.901 19.8363L110.743 12.7598H111.559L114.324 19.8363C114.47 19.8656 114.618 19.9095 114.764 19.968C114.911 20.0192 115.04 20.0813 115.15 20.1545V20.5714H111.702V20.1545C111.842 20.0887 111.992 20.0265 112.154 19.968C112.315 19.9095 112.47 19.8656 112.616 19.8363L111.977 18.0919H109.532L108.882 19.8363C109.22 19.8802 109.539 19.9863 109.84 20.1545V20.5714ZM109.796 17.3787H111.746L111.03 15.2832L110.821 14.3397H110.799L110.556 15.3051L109.796 17.3787ZM122.526 12.8914V13.3083C122.431 13.3668 122.302 13.4254 122.14 13.4839C121.979 13.5424 121.806 13.59 121.622 13.6265V19.8363C121.814 19.8729 121.982 19.9205 122.129 19.979C122.276 20.0375 122.408 20.096 122.526 20.1545V20.5714H119.11V20.1545C119.236 20.0887 119.368 20.0302 119.507 19.979C119.654 19.9205 119.809 19.8729 119.97 19.8363V17.4226H119.044C118.824 17.9273 118.6 18.4174 118.372 18.8928C118.152 19.3682 117.881 19.8108 117.557 20.2203L117.105 20.5714H115.2V20.1984L115.684 19.9351C116.155 19.4304 116.533 18.966 116.819 18.5417C117.113 18.1175 117.385 17.7225 117.634 17.3568C117.444 17.291 117.253 17.2032 117.061 17.0935C116.871 16.9764 116.698 16.8302 116.544 16.6546C116.397 16.4791 116.276 16.2706 116.18 16.0293C116.092 15.7879 116.048 15.5063 116.048 15.1845C116.048 14.7602 116.14 14.4018 116.323 14.1093C116.507 13.8094 116.749 13.568 117.05 13.3851C117.352 13.195 117.7 13.0596 118.097 12.9792C118.494 12.8988 118.901 12.8585 119.32 12.8585C119.393 12.8585 119.489 12.8621 119.606 12.8695C119.732 12.8695 119.86 12.8731 119.992 12.8805C120.132 12.8805 120.271 12.8841 120.41 12.8914C120.55 12.8914 120.675 12.8914 120.785 12.8914H122.526ZM119.298 16.7753C119.401 16.7753 119.522 16.7717 119.661 16.7643C119.809 16.7497 119.911 16.7351 119.97 16.7205V13.6265C119.911 13.6119 119.82 13.6009 119.694 13.5936C119.57 13.579 119.463 13.5717 119.375 13.5717C119.162 13.5717 118.96 13.6009 118.769 13.6594C118.586 13.7106 118.421 13.7984 118.273 13.9227C118.134 14.0471 118.02 14.208 117.932 14.4055C117.851 14.603 117.811 14.8443 117.811 15.1296C117.811 15.6782 117.943 16.0914 118.207 16.3694C118.479 16.64 118.843 16.7753 119.298 16.7753ZM47.4053 28.0265C47.0601 27.968 46.759 27.8619 46.502 27.7083V27.2914H52.4178C52.4178 27.4596 52.4104 27.6461 52.3957 27.851C52.381 28.0558 52.3627 28.2605 52.3406 28.4654C52.3186 28.6702 52.2929 28.8677 52.2635 29.0578C52.2341 29.248 52.2047 29.4199 52.1754 29.5735H51.7237L51.0407 28.0046H49.0578V30.5061C49.1239 30.4987 49.2046 30.4914 49.3001 30.4841C49.3955 30.4695 49.491 30.4585 49.5865 30.4512C49.6893 30.4439 49.7885 30.4402 49.884 30.4402C49.9868 30.4329 50.0749 30.4293 50.1484 30.4293C50.5229 30.4293 50.8791 30.4695 51.217 30.5499C51.5548 30.6304 51.8486 30.762 52.0982 30.9449C52.3553 31.1205 52.5572 31.3509 52.7042 31.6361C52.8584 31.9214 52.9355 32.2651 52.9355 32.6674C52.9355 33.0551 52.8547 33.3952 52.6932 33.6878C52.5389 33.9804 52.3223 34.2254 52.0432 34.4229C51.7714 34.613 51.4446 34.7593 51.0627 34.8617C50.6882 34.9568 50.2806 35.0043 49.8399 35.0043C49.8032 35.0043 49.7114 35.0007 49.5645 34.9934C49.4176 34.9934 49.2523 34.9897 49.0688 34.9824C48.8851 34.9824 48.7015 34.9788 48.5179 34.9714C48.3343 34.9714 48.1875 34.9714 48.0773 34.9714H46.502V34.5545C46.6414 34.4741 46.7847 34.4082 46.9316 34.357C47.0858 34.2985 47.2437 34.2583 47.4053 34.2363V28.0265ZM49.6747 31.1424C49.5571 31.1424 49.4433 31.1497 49.3332 31.1643C49.223 31.1717 49.1312 31.1863 49.0578 31.2082V34.2473C49.0871 34.2546 49.1312 34.2619 49.1899 34.2693C49.2561 34.2766 49.3221 34.2839 49.3882 34.2912C49.4543 34.2912 49.5167 34.2912 49.5755 34.2912C49.6416 34.2912 49.693 34.2912 49.7298 34.2912C50.163 34.2912 50.5009 34.1522 50.7433 33.8743C50.9929 33.5964 51.1178 33.205 51.1178 32.7003C51.1178 32.2176 51.0039 31.8372 50.7763 31.5593C50.5486 31.2814 50.1814 31.1424 49.6747 31.1424ZM56.8753 34.9714H53.5593V34.5545C53.6988 34.4813 53.8458 34.4155 54 34.357C54.1542 34.2985 54.3084 34.2583 54.4627 34.2363V28.0265C54.3157 27.99 54.1615 27.9497 54 27.9058C53.8384 27.8546 53.6915 27.7888 53.5593 27.7083V27.2914H56.8753V27.7083C56.7651 27.7742 56.6402 27.8364 56.5007 27.8949C56.3611 27.9533 56.2106 27.9972 56.049 28.0265V32.1957L55.9389 33.0514L56.4787 32.1518L59.2548 28.2898V28.0265C58.9096 27.9461 58.6195 27.84 58.3845 27.7083V27.2914H61.7004V27.7083C61.5755 27.7888 61.4323 27.8546 61.2708 27.9058C61.1166 27.9497 60.9586 27.99 60.7971 28.0265V34.2363C60.966 34.2656 61.1239 34.3095 61.2708 34.368C61.425 34.4192 61.5682 34.4813 61.7004 34.5545V34.9714H58.3845V34.5545C58.4873 34.5033 58.6085 34.4484 58.748 34.3899C58.8949 34.3241 59.0491 34.2729 59.2107 34.2363V30.0782L59.3209 29.2114L58.8252 30.0782L56.005 33.995V34.2363C56.1739 34.2729 56.3317 34.3205 56.4787 34.379C56.6255 34.4375 56.7577 34.496 56.8753 34.5545V34.9714ZM63.0477 28.0265C62.7025 27.968 62.4014 27.8619 62.1443 27.7083V27.2914H68.0601C68.0601 27.4596 68.0528 27.6461 68.0381 27.851C68.0234 28.0558 68.0051 28.2605 67.983 28.4654C67.961 28.6702 67.9353 28.8677 67.9059 29.0578C67.8765 29.248 67.8472 29.4199 67.8178 29.5735H67.3661L66.6831 28.0046H64.7001V30.5061C64.7662 30.4987 64.847 30.4914 64.9425 30.4841C65.038 30.4695 65.1334 30.4585 65.2289 30.4512C65.3317 30.4439 65.4309 30.4402 65.5264 30.4402C65.6292 30.4329 65.7173 30.4293 65.7908 30.4293C66.1653 30.4293 66.5215 30.4695 66.8594 30.5499C67.1972 30.6304 67.4909 30.762 67.7407 30.9449C67.9977 31.1205 68.1997 31.3509 68.3466 31.6361C68.5008 31.9214 68.5779 32.2651 68.5779 32.6674C68.5779 33.0551 68.4971 33.3952 68.3355 33.6878C68.1813 33.9804 67.9646 34.2254 67.6856 34.4229C67.4138 34.613 67.087 34.7593 66.7051 34.8617C66.3306 34.9568 65.923 35.0043 65.4823 35.0043C65.4456 35.0043 65.3538 35.0007 65.2069 34.9934C65.06 34.9934 64.8948 34.9897 64.7112 34.9824C64.5275 34.9824 64.344 34.9788 64.1603 34.9714C63.9767 34.9714 63.8298 34.9714 63.7197 34.9714H62.1443V34.5545C62.2839 34.4741 62.4271 34.4082 62.574 34.357C62.7282 34.2985 62.8861 34.2583 63.0477 34.2363V28.0265ZM65.3171 31.1424C65.1995 31.1424 65.0857 31.1497 64.9755 31.1643C64.8654 31.1717 64.7736 31.1863 64.7001 31.2082V34.2473C64.7295 34.2546 64.7736 34.2619 64.8323 34.2693C64.8984 34.2766 64.9645 34.2839 65.0306 34.2912C65.0967 34.2912 65.1592 34.2912 65.2179 34.2912C65.284 34.2912 65.3354 34.2912 65.3721 34.2912C65.8054 34.2912 66.1433 34.1522 66.3856 33.8743C66.6354 33.5964 66.7602 33.205 66.7602 32.7003C66.7602 32.2176 66.6464 31.8372 66.4187 31.5593C66.191 31.2814 65.8238 31.1424 65.3171 31.1424ZM71.2952 28.1362C71.0673 28.0997 70.8504 28.0411 70.6452 27.9607C70.4469 27.8802 70.2741 27.7961 70.1274 27.7083V27.2914H76.4839V27.7083C76.3737 27.7742 76.2374 27.8364 76.0763 27.8949C75.9221 27.9533 75.7568 27.9972 75.5806 28.0265V34.2363C75.7492 34.2656 75.9069 34.3095 76.0543 34.368C76.2085 34.4265 76.3517 34.4887 76.4839 34.5545V34.9714H73.0908V34.5545C73.2155 34.4887 73.3477 34.4302 73.4874 34.379C73.6341 34.3205 73.7807 34.2729 73.9281 34.2363V28.0046H72.1324C72.1104 29.1163 72.0587 30.0453 71.9782 30.7913C71.8969 31.53 71.7978 32.1408 71.6807 32.6235C71.563 33.1063 71.4308 33.4903 71.2842 33.7755C71.1444 34.0535 70.9977 34.2948 70.8435 34.4997C70.7037 34.6898 70.5275 34.8398 70.3147 34.9495C70.1013 35.0519 69.8961 35.1031 69.6978 35.1031C69.6021 35.0665 69.5105 34.9934 69.4224 34.8837C69.3343 34.7666 69.253 34.6349 69.18 34.4887C69.1063 34.3424 69.0437 34.1888 68.9927 34.0279C68.948 33.8669 68.9225 33.717 68.9149 33.5781L69.2131 33.1611L70.524 33.4793C70.619 33.2745 70.7113 33.0295 70.7994 32.7442C70.8945 32.4516 70.9791 32.0933 71.0528 31.669C71.1258 31.2448 71.185 30.7438 71.2291 30.1659C71.2731 29.5881 71.2952 28.9116 71.2952 28.1362ZM80.2419 34.9714H76.9259V34.5545C77.0657 34.4813 77.2123 34.4155 77.3666 34.357C77.5208 34.2985 77.675 34.2583 77.8293 34.2363V28.0265C77.6826 27.99 77.5284 27.9497 77.3666 27.9058C77.2055 27.8546 77.0581 27.7888 76.9259 27.7083V27.2914H80.2419V27.7083C80.1317 27.7742 80.0071 27.8364 79.8673 27.8949C79.7282 27.9533 79.5774 27.9972 79.4156 28.0265V32.1957L79.3055 33.0514L79.8453 32.1518L82.6214 28.2898V28.0265C82.2765 27.9461 81.9866 27.84 81.7511 27.7083V27.2914H85.067V27.7083C84.9424 27.7888 84.7992 27.8546 84.6374 27.9058C84.4832 27.9497 84.3255 27.99 84.1637 28.0265V34.2363C84.3331 34.2656 84.4907 34.3095 84.6374 34.368C84.7916 34.4192 84.9348 34.4813 85.067 34.5545V34.9714H81.7511V34.5545C81.8544 34.5033 81.9756 34.4484 82.1146 34.3899C82.262 34.3241 82.4162 34.2729 82.5773 34.2363V30.0782L82.6875 29.2114L82.1918 30.0782L79.3716 33.995V34.2363C79.5409 34.2729 79.6986 34.3205 79.8453 34.379C79.9926 34.4375 80.1248 34.496 80.2419 34.5545V34.9714ZM85.7205 31.1314C85.7205 30.5609 85.801 30.0343 85.9628 29.5515C86.1246 29.0615 86.3628 28.6409 86.6789 28.2898C86.9949 27.9314 87.3839 27.6535 87.8466 27.456C88.3093 27.2585 88.8415 27.1598 89.444 27.1598C90.0464 27.1598 90.5787 27.2585 91.0414 27.456C91.5041 27.6535 91.8896 27.9314 92.1981 28.2898C92.5141 28.6409 92.7524 29.0615 92.9142 29.5515C93.076 30.0343 93.1565 30.5609 93.1565 31.1314C93.1565 31.7019 93.076 32.2322 92.9142 32.7223C92.7524 33.205 92.5141 33.6256 92.1981 33.984C91.8896 34.3351 91.5041 34.6094 91.0414 34.8069C90.5787 35.0043 90.0464 35.1031 89.444 35.1031C88.8415 35.1031 88.3093 35.0043 87.8466 34.8069C87.3839 34.6094 86.9949 34.3351 86.6789 33.984C86.3628 33.6256 86.1246 33.205 85.9628 32.7223C85.801 32.2322 85.7205 31.7019 85.7205 31.1314ZM87.5932 31.1314C87.5932 31.5996 87.6297 32.0347 87.7034 32.437C87.7771 32.832 87.8907 33.1757 88.0449 33.4683C88.2067 33.7536 88.4085 33.9804 88.6508 34.1486C88.9007 34.3095 89.1982 34.3899 89.5431 34.3899C89.8592 34.3899 90.127 34.3095 90.3473 34.1486C90.5677 33.9804 90.7474 33.7536 90.8871 33.4683C91.0269 33.1757 91.1261 32.832 91.1846 32.437C91.2507 32.0347 91.2837 31.5996 91.2837 31.1314C91.2837 30.6633 91.2472 30.2318 91.1736 29.8368C91.1075 29.4345 90.9973 29.0907 90.8431 28.8055C90.6964 28.5129 90.4981 28.2862 90.2482 28.1253C90.0058 27.957 89.7084 27.8729 89.3559 27.8729C89.0178 27.8729 88.7355 27.957 88.5076 28.1253C88.2797 28.2862 88.0965 28.5129 87.9568 28.8055C87.8246 29.0907 87.7289 29.4345 87.6704 29.8368C87.6187 30.2318 87.5932 30.6633 87.5932 31.1314ZM98.9443 34.9714H95.1546V34.5545C95.3013 34.496 95.4665 34.4375 95.6504 34.379C95.8411 34.3131 96.0325 34.2656 96.2232 34.2363V28.0046H94.9453L94.2403 29.8807H93.7886C93.759 29.7344 93.7301 29.5479 93.7005 29.3211C93.6708 29.0944 93.6454 28.8603 93.6233 28.619C93.6013 28.3776 93.5827 28.1399 93.5683 27.9058C93.5538 27.6645 93.5462 27.4596 93.5462 27.2914H100.564C100.564 27.467 100.556 27.6718 100.542 27.9058C100.527 28.1399 100.509 28.3776 100.487 28.619C100.465 28.8603 100.439 29.0944 100.409 29.3211C100.38 29.5406 100.351 29.7271 100.321 29.8807H99.8586L99.1536 28.0046H97.8757V34.2363C98.0664 34.2729 98.2537 34.3168 98.4375 34.368C98.6282 34.4192 98.7976 34.4813 98.9443 34.5545V34.9714ZM106.744 27.2914C106.729 27.6206 106.703 27.9607 106.667 28.3118C106.63 28.6629 106.582 28.992 106.524 29.2992H106.072L105.565 28.0046H103.505V30.6926H104.849L105.334 29.8478H105.686C105.723 30.2062 105.741 30.6048 105.741 31.0437C105.741 31.4825 105.723 31.8921 105.686 32.2725H105.334L104.849 31.4057H103.505V34.2583H105.653L106.237 32.8649H106.689C106.718 33.0039 106.747 33.1611 106.777 33.3367C106.807 33.5122 106.829 33.6951 106.843 33.8853C106.865 34.0681 106.879 34.2546 106.887 34.4448C106.902 34.6349 106.909 34.8105 106.909 34.9714H100.949V34.5545C101.074 34.4887 101.214 34.4265 101.368 34.368C101.522 34.3095 101.684 34.2656 101.853 34.2363V28.0265C101.706 27.9972 101.548 27.957 101.379 27.9058C101.217 27.8473 101.074 27.7815 100.949 27.7083V27.2914H106.744ZM111.773 27.2914H114.725V27.7083C114.601 27.7888 114.457 27.8583 114.296 27.9168C114.134 27.968 113.987 28.0046 113.855 28.0265L111.762 30.6706C111.931 30.9047 112.129 31.1717 112.357 31.4715C112.585 31.7641 112.827 32.0713 113.084 32.3931C113.341 32.7077 113.605 33.0295 113.877 33.3586C114.149 33.6804 114.413 33.9876 114.67 34.2802L115.199 34.5984V34.9714H113.282L112.841 34.6642C112.665 34.4448 112.478 34.2034 112.28 33.9401C112.089 33.6695 111.897 33.3915 111.707 33.1063C111.516 32.8137 111.329 32.5212 111.145 32.2286C110.961 31.936 110.789 31.6507 110.627 31.3728H110.153V34.2363C110.315 34.2656 110.462 34.3095 110.594 34.368C110.726 34.4265 110.84 34.4887 110.936 34.5545V34.9714H107.598V34.5545C107.744 34.4813 107.895 34.4192 108.049 34.368C108.204 34.3095 108.354 34.2656 108.501 34.2363V28.0265C108.332 28.0046 108.167 27.9643 108.005 27.9058C107.851 27.8473 107.715 27.7815 107.598 27.7083V27.2914H110.936V27.7083C110.84 27.7668 110.723 27.8254 110.583 27.8839C110.451 27.9424 110.308 27.99 110.153 28.0265V30.8133L110.803 30.6597L112.577 28.0265C112.43 27.9972 112.283 27.9533 112.136 27.8949C111.997 27.829 111.875 27.7668 111.773 27.7083V27.2914ZM117.791 34.9714H115.069V34.5545C115.187 34.4813 115.312 34.4192 115.444 34.368C115.584 34.3095 115.719 34.2656 115.852 34.2363L118.694 27.1598H119.509L122.274 34.2363C122.421 34.2656 122.568 34.3095 122.715 34.368C122.862 34.4192 122.99 34.4813 123.1 34.5545V34.9714H119.652V34.5545C119.792 34.4887 119.942 34.4265 120.104 34.368C120.266 34.3095 120.42 34.2656 120.567 34.2363L119.928 32.4919H117.482L116.832 34.2363C117.17 34.2802 117.49 34.3863 117.791 34.5545V34.9714ZM117.746 31.7787H119.696L118.98 29.6832L118.771 28.7397H118.749L118.507 29.7051L117.746 31.7787Z" fill="#12263A"/>
<path id="logo-ico" d="M37.0996 12.8932C36.9381 12.7324 36.7188 12.6424 36.4911 12.6424C36.4887 12.6424 36.4887 12.6424 36.4887 12.6424L33.909 12.652V9.2152C33.909 8.74116 33.5234 8.3584 33.0487 8.3584H31.9715C25.507 8.3584 21.72 9.292 19.2776 11.5492C16.8353 9.292 13.0482 8.3584 6.58383 8.3584H5.50784C5.0331 8.3584 4.64753 8.74116 4.64753 9.2152V12.652L2.0678 12.6424C1.83405 12.6412 1.61837 12.7324 1.45691 12.8932C1.29545 13.054 1.20508 13.2736 1.20508 13.5004V35.572C1.20508 36.046 1.59065 36.4288 2.06659 36.4288H3.14259C14.7243 36.4288 17.1992 39.0316 17.4437 39.3316C17.6076 39.5272 17.8511 39.6436 18.1101 39.6436H20.4476C20.7079 39.6436 20.9513 39.5272 21.1151 39.3316C21.3585 39.0316 23.8346 36.4288 35.4163 36.4288H36.4923C36.9682 36.4288 37.3538 36.046 37.3538 35.572V13.5004C37.3526 13.2736 37.261 13.054 37.0996 12.8932ZM2.92691 34.7152V14.3596L4.64873 14.3668V34.7308C4.16195 34.72 3.6607 34.7152 3.14259 34.7152H2.92691ZM6.36936 34.786V13.5184C6.36936 13.516 6.36936 13.5136 6.36936 13.5088V10.072H6.58504C12.8759 10.072 16.3461 10.9576 18.4173 13.1128V37.8712C17.2774 36.8284 14.2351 35.1496 6.36936 34.786ZM20.1403 37.8712V13.1128C22.2104 10.9576 25.683 10.072 31.9726 10.072H32.1883V13.5088V34.786C24.3202 35.1496 21.2802 36.8284 20.1403 37.8712ZM35.6308 34.7152H35.4151C34.8958 34.7152 34.3958 34.72 33.909 34.7308V14.3668L35.6308 14.3596V34.7152Z" fill="#12263A"/>
<path id="logo-bottom-line" d="M44.0654 39.0859H125.311" stroke="#12263A" stroke-width="2" stroke-linecap="square"/>
<path id="logo-top-line" d="M44.0654 8.91406C75.794 8.91406 93.5827 8.91406 125.311 8.91406" stroke="#12263A" stroke-width="2" stroke-linecap="square"/>
</g>
<defs>
<clipPath id="clip0">
<rect width="126" height="48" fill="white"/>
</clipPath>
</defs>
</svg>
