<svg width="16" height="16" viewBox="0 0 16 16" fill="none" xmlns="http://www.w3.org/2000/svg">
<g id="man-icon">
<g id="Group">
<path id="Vector" d="M8.28293 8.52002C5.08509 8.52002 2.4834 11.2191 2.4834 14.5365C2.4834 14.6686 2.59038 14.7757 2.72255 14.7757H13.8433C13.9753 14.7757 14.0825 14.6686 14.0825 14.5365C14.0825 11.219 11.4809 8.52002 8.28293 8.52002ZM2.96665 14.2974C3.08735 11.3542 5.42581 8.99833 8.28293 8.99833C11.14 8.99833 13.4785 11.3542 13.5994 14.2974H2.96665Z" fill="#12263A"/>
<path id="Vector_2" d="M8.18288 7.86293C10.0273 7.86293 11.5277 6.31001 11.5277 4.40107C11.5277 2.49213 10.0274 0.939209 8.18288 0.939209C6.33835 0.939209 4.83789 2.49229 4.83789 4.40107C4.83789 6.30985 6.33835 7.86293 8.18288 7.86293ZM8.18288 1.41752C9.76354 1.41752 11.0494 2.756 11.0494 4.40107C11.0494 6.04614 9.76354 7.38462 8.18288 7.38462C6.60206 7.38462 5.3162 6.04614 5.3162 4.40107C5.3162 2.756 6.60222 1.41752 8.18288 1.41752Z" fill="#12263A"/>
</g>
</g>
</svg>
